<?xml version="1.0" encoding="UTF-8" standalone="no"?>
<svg
   xmlns:dc="http://purl.org/dc/elements/1.1/"
   xmlns:cc="http://creativecommons.org/ns#"
   xmlns:rdf="http://www.w3.org/1999/02/22-rdf-syntax-ns#"
   xmlns:svg="http://www.w3.org/2000/svg"
   xmlns="http://www.w3.org/2000/svg"
   viewBox="0 0 536.10669 68.040001"
   height="68.040001"
   width="536.10669"
   xml:space="preserve"
   id="svg2"
   version="1.1"><metadata
     id="metadata8"><rdf:RDF><cc:Work
         rdf:about=""><dc:format>image/svg+xml</dc:format><dc:type
           rdf:resource="http://purl.org/dc/dcmitype/StillImage" /></cc:Work></rdf:RDF></metadata><defs
     id="defs6" /><g
     transform="matrix(1.3333333,0,0,-1.3333333,0,68.04)"
     id="g10"><g
       transform="scale(0.1)"
       id="g12"><path
         id="path14"
         style="fill:#21201f;fill-opacity:1;fill-rule:nonzero;stroke:none"
         d="m 387,303.816 c -21,-5 -38.004,-22 -43.004,-43 -8.996,-42 27.004,-79 70,-69.996 21.004,5 38.004,22 43.004,42.996 9,42 -28.004,79 -70,70" /><path
         id="path16"
         style="fill:#21201f;fill-opacity:1;fill-rule:nonzero;stroke:none"
         d="M 420,135.82 C 386,99.8125 338.996,81.8164 290,84.8125 c -81.004,5 -146.996,70.0005 -154,150.0005 -9,103.003 77.004,189.003 181,179.003 71.996,-7 131.996,-62 145,-133 10,-52.996 -6,-106.003 -42,-144.996 z m 113.996,354 H 455 c -3,0 -6.004,-3.004 -6.004,-6.004 v -41 c 0,-2.996 -1.996,-4 -5,-2 -40,31 -90,49.004 -145,49.004 C 171,489.82 67,389.82 58.9961,263.816 c 0,-2 -0.9961,-3.996 -1.9961,-6 l -56,-86 c -2.00391,-3.996 -1,-8 2.99609,-10 L 58,138.816 c 3,-0.996 5,-2.996 5,-5 V 15.8203 c 0,-3 3,-6.0078 5.9961,-6.0078 H 307 c 63,2.0039 124,29.0039 168,75 42,44.0035 65,102.0035 65,162.0035 v 1.004 0.996 c 0,0.997 0,2 0,2 v 233 c 0,3 -3,6.004 -6.004,6.004" /><path
         id="path18"
         style="fill:#21201f;fill-opacity:1;fill-rule:nonzero;stroke:none"
         d="M 934.98,296.602 H 770.578 V 489.77 H 678.109 V 10.2734 h 92.469 V 217.832 H 934.98 V 10.2734 h 92.47 V 489.77 H 934.98 V 296.602" /><path
         id="path20"
         style="fill:#21201f;fill-opacity:1;fill-rule:nonzero;stroke:none"
         d="m 1324.74,155.496 c 0,-24.207 -6.62,-41.902 -19.86,-53.094 -13.26,-11.1911 -30.6,-16.777 -52.06,-16.777 -19.18,0 -33.12,4.7969 -41.79,14.383 -8.68,9.59 -13.01,25.801 -13.01,48.644 V 373.32 h -89.05 V 139.051 c 0,-42.4572 10.15,-76.2697 30.48,-101.3752 C 1159.76,12.5586 1190.93,0 1232.95,0 c 40.64,0 72.15,15.0781 94.53,45.2031 h 1.37 V 10.2734 h 84.94 V 373.32 h -89.05 V 155.496" /><path
         id="path22"
         style="fill:#21201f;fill-opacity:1;fill-rule:nonzero;stroke:none"
         d="m 1953.9,349.344 c -25.35,22.832 -59.72,34.254 -103.1,34.254 -20.09,0 -38.59,-4.453 -55.48,-13.36 -16.89,-8.906 -29.91,-20.441 -39.04,-34.59 h -1.37 c -8.68,14.149 -21.47,25.684 -38.36,34.59 -16.9,8.907 -34.94,13.36 -54.11,13.36 -18.74,0 -35.97,-4.344 -51.72,-13.016 -15.76,-8.684 -27.75,-19.414 -35.96,-32.199 h -1.38 v 34.937 h -81.51 V 10.2734 h 86.31 V 245.223 c 0,16.449 5.24,29.91 15.75,40.418 10.5,10.5 26.03,15.761 46.59,15.761 20.08,0 35.62,-5.828 46.57,-17.472 10.97,-11.645 16.44,-26.149 16.44,-43.5 V 10.2734 h 81.52 V 245.223 c 0,16.449 5.36,29.91 16.1,40.418 10.72,10.5 26.13,15.761 46.23,15.761 21.46,0 37.33,-5.718 47.61,-17.129 10.28,-11.418 15.41,-26.035 15.41,-43.843 V 10.2734 h 81.52 V 258.926 c 0,37.441 -12.68,67.582 -38.02,90.418" /><path
         id="path24"
         style="fill:#21201f;fill-opacity:1;fill-rule:nonzero;stroke:none"
         d="m 2262.49,130.156 c 0,-15.078 -6.74,-27.754 -20.21,-38.0271 -13.48,-10.2656 -33.68,-15.4023 -60.63,-15.4023 -35.61,0 -53.42,12.3164 -53.42,36.9844 0,9.59 3.52,18.144 10.61,25.691 7.08,7.532 22.03,14.036 44.87,19.512 21.92,5.488 38.8,10.625 50.7,15.422 11.86,4.797 18.83,8.215 20.89,10.273 2.05,2.051 3.98,4.903 5.82,8.555 h 1.37 z m 43.15,218.504 c -28.32,23.293 -64.62,34.938 -108.91,34.938 -40.65,0 -73.53,-9.711 -98.64,-29.118 -25.13,-19.414 -42.02,-44.414 -50.68,-75 l 73.96,-30.828 c 5.94,18.25 14.16,32.766 24.67,43.5 10.5,10.723 27.85,16.102 52.06,16.102 20.55,0 35.96,-3.664 46.23,-10.965 10.27,-7.309 15.42,-16.441 15.42,-27.402 0,-10.961 -5.25,-19.41 -15.76,-25.344 -10.51,-5.941 -36.54,-13.938 -78.09,-23.977 -44.76,-10.957 -76.49,-24.66 -95.21,-41.093 -18.73,-16.446 -28.09,-40.422 -28.09,-71.922 0,-30.1487 10.84,-55.6096 32.54,-76.3791 C 2096.82,10.3828 2129.59,0 2173.43,0 c 13.7,0 26.49,1.60938 38.37,4.79688 11.87,3.19921 21.23,6.84372 28.08,10.95702 6.84,4.1094 13.01,8.6719 18.5,13.6992 5.47,5.0196 8.9,8.5742 10.27,10.625 1.37,2.0508 2.51,3.7617 3.42,5.125 h 1.37 V 10.2734 h 74.67 V 240.43 c 0,48.863 -14.16,84.945 -42.47,108.23" /><path
         id="path26"
         style="fill:#21201f;fill-opacity:1;fill-rule:nonzero;stroke:none"
         d="m 2602.24,383.598 c -19.18,0 -37.45,-4.344 -54.79,-13.016 -17.37,-8.684 -31.07,-19.414 -41.11,-32.199 h -1.37 v 34.937 h -85.62 V 10.2734 h 89.04 V 232.219 c 0,21 6.16,37.777 18.5,50.344 12.33,12.554 29.45,18.839 51.38,18.839 23.28,0 39.72,-6.285 49.31,-18.839 9.6,-12.567 14.39,-31.403 14.39,-56.508 V 10.2734 h 89.04 V 247.969 c 0,42.469 -11.42,75.691 -34.24,99.668 -22.84,23.972 -54.35,35.961 -94.53,35.961" /><path
         id="path28"
         style="fill:#21201f;fill-opacity:1;fill-rule:nonzero;stroke:none"
         d="m 3011.86,109.258 c -14.62,-19.4142 -34.71,-29.1135 -60.27,-29.1135 -25.59,0 -45.67,9.5899 -60.29,28.7615 -14.62,19.188 -21.91,46.809 -21.91,82.891 0,36.062 7.41,63.711 22.25,82.887 14.84,19.179 34.83,28.773 59.95,28.773 25.11,0 45.09,-9.711 59.94,-29.117 14.82,-19.418 22.25,-46.918 22.25,-82.543 0,-35.617 -7.31,-63.137 -21.92,-82.539 z m -60.27,274.34 c -47.5,0 -87.68,-17.129 -120.56,-51.371 -32.88,-34.254 -49.33,-81.067 -49.33,-140.43 0,-60.274 15.98,-107.3165 47.96,-141.1056 C 2861.61,16.8828 2902.26,0 2951.59,0 c 49.31,0 89.96,16.8828 121.92,50.6914 31.96,33.7891 47.95,80.8316 47.95,141.1056 0,59.363 -16.44,106.176 -49.32,140.43 -32.87,34.242 -73.06,51.371 -120.55,51.371" /><path
         id="path30"
         style="fill:#21201f;fill-opacity:1;fill-rule:nonzero;stroke:none"
         d="m 3175.58,426.063 h 89.04 v 84.257 h -89.04 v -84.257" /><path
         id="path32"
         style="fill:#21201f;fill-opacity:1;fill-rule:nonzero;stroke:none"
         d="m 3175.58,10.2734 h 89.04 V 373.32 h -89.04 V 10.2734" /><path
         id="path34"
         style="fill:#21201f;fill-opacity:1;fill-rule:nonzero;stroke:none"
         d="m 3568.07,158.914 c 0,-21.922 -6.97,-40.527 -20.89,-55.82 -13.94,-15.3127 -33.01,-22.9495 -57.21,-22.9495 -26.02,0 -46.23,9.4727 -60.61,28.4295 -14.39,18.946 -21.58,46.688 -21.58,83.223 0,36.992 7.19,64.844 21.58,83.574 14.38,18.723 34.59,28.086 60.61,28.086 24.2,0 43.27,-7.539 57.21,-22.609 13.92,-15.067 20.89,-33.563 20.89,-55.489 z m 0,179.469 h -1.38 l -8.89,11.652 c -5.48,7.301 -15.87,14.727 -31.18,22.262 -15.31,7.531 -32.53,11.301 -51.7,11.301 -42.04,0 -78.57,-17.243 -109.6,-51.719 -31.07,-34.481 -46.59,-81.172 -46.59,-140.082 0,-58.457 14.27,-105.0392 42.82,-139.7384 C 3390.07,17.3516 3428.33,0 3476.28,0 c 19.63,0 37.78,4.22656 54.46,12.6758 16.66,8.4375 27.16,15.1758 31.5,20.207 4.34,5.0156 7.65,9.1289 9.94,12.3203 h 1.37 V 10.2734 h 83.56 V 510.32 h -89.04 V 338.383" /><path
         id="path36"
         style="fill:#21201f;fill-opacity:1;fill-rule:nonzero;stroke:none"
         d="m 3997.89,180.496 c -15.29,17.578 -44.18,32.082 -86.64,43.496 -48.41,13.703 -78.67,23.399 -90.76,29.117 -12.11,5.704 -18.15,13.586 -18.15,23.629 0,9.129 5.13,17.008 15.41,23.633 10.27,6.609 24.08,9.938 41.44,9.938 22.37,0 39.39,-5.036 51.04,-15.075 11.64,-10.054 20.64,-23.75 27.05,-41.093 l 73.97,22.597 c -20.53,71.239 -71.46,106.86 -152.74,106.86 -42.48,0 -75.94,-10.961 -100.35,-32.879 -24.45,-21.918 -36.65,-47.949 -36.65,-78.09 0,-26.953 9.81,-48.527 29.45,-64.738 19.63,-16.203 50.45,-30.254 92.48,-42.121 4.55,-1.368 11.17,-3.204 19.86,-5.477 31.96,-9.141 52.96,-16.34 63.02,-21.582 10.03,-5.254 15.07,-13.137 15.07,-23.633 0,-12.793 -6.51,-22.7147 -19.52,-29.7967 -13.02,-7.0899 -30.49,-10.6133 -52.41,-10.6133 -47.94,0 -75.11,25.34 -81.52,76.023 l -80.13,-20.535 c 5.47,-36.0857 21.8,-66.7888 48.98,-92.1287 C 3783.95,12.6758 3822.65,0 3872.89,0 c 47.95,0 84.6,11.5234 109.95,34.5898 25.34,23.0547 38,49.1993 38,78.4262 0,27.414 -7.64,49.894 -22.95,67.48" /></g></g></svg>